<?xml version="1.0" encoding="utf-8"?>
<!-- Generator: Adobe Illustrator 16.0.0, SVG Export Plug-In . SVG Version: 6.00 Build 0)  -->
<!DOCTYPE svg PUBLIC "-//W3C//DTD SVG 1.1//EN" "http://www.w3.org/Graphics/SVG/1.1/DTD/svg11.dtd">
<svg version="1.1" id="Layer_1" xmlns="http://www.w3.org/2000/svg" xmlns:xlink="http://www.w3.org/1999/xlink" x="0px" y="0px"
	 width="112px" height="160px" viewBox="152.14 225.213 112 160" enable-background="new 152.14 225.213 112 160"
	 xml:space="preserve">
<g>
	<g>
		<rect x="152.749" y="225.501" fill="#475A65" width="112" height="160"/>
		<rect x="152.749" y="225.501" fill="#93CA66" width="112" height="51.121"/>
	</g>
	<g>
		<path fill="#0D947C" d="M219.995,262.857v-13.538c0-0.182-0.087-0.344-0.219-0.451h0.004l-10.95-9.432l-11.112,9.432h0.004
			c-0.132,0.107-0.219,0.269-0.219,0.451v13.539c0,0.321,0.262,0.583,0.584,0.583h21.323
			C219.732,263.441,219.995,263.179,219.995,262.857L219.995,262.857z"/>
		<g>
			<path opacity="0.05" fill="#FFFFFF" d="M219.995,262.858c0,0.321-0.263,0.583-0.585,0.583h-21.323
				c-0.322,0-0.584-0.263-0.584-0.583l11.327-7.229L219.995,262.858z"/>
			<path opacity="0.15" fill="#FFFFFF" d="M197.503,262.858v-13.539c0-0.321,0.262-0.583,0.584-0.583l10.743,6.894L197.503,262.858z
				"/>
			<path opacity="0.1" fill="#FFFFFF" d="M219.995,262.857v-13.538c0-0.321-0.263-0.584-0.585-0.584l-10.58,6.894L219.995,262.857z"
				/>
		</g>
		<g>
			<polygon fill="#C8C0B9" points="208.83,255.629 218.659,249.225 218.659,239.14 198.838,239.14 198.838,249.217 			"/>
			<polygon fill="#FFF2EA" points="208.83,255.629 217.872,249.738 217.872,239.79 199.625,239.79 199.625,249.723 			"/>
			<rect x="201.554" y="241.736" fill="#353637" width="14.273" height="1.756"/>
			<rect x="201.554" y="244.169" fill="#92301F" width="14.273" height="0.487"/>
			<rect x="201.554" y="246.413" fill="#353637" width="3.784" height="3.784"/>
			<rect x="206.285" y="246.413" fill="#E2D8D1" width="9.542" height="0.513"/>
			<rect x="206.285" y="247.899" fill="#E2D8D1" width="9.542" height="0.514"/>
			<rect x="206.285" y="249.386" fill="#E2D8D1" width="9.542" height="0.513"/>
			<polygon fill="#E2D8D1" points="202.217,251.386 215.343,251.386 215.827,251.071 215.827,250.872 201.797,250.872 
				201.797,251.116 			"/>
			<polygon fill="#E2D8D1" points="204.41,252.792 213.183,252.792 213.972,252.279 203.609,252.279 			"/>
			<polygon fill="#E2D8D1" points="206.429,254.088 211.195,254.088 211.983,253.575 205.628,253.575 			"/>
		</g>
	</g>
	<g>
		
			<rect x="174.691" y="336.105" opacity="0.1" fill-rule="evenodd" clip-rule="evenodd" fill="#231F20" stroke="#FFFFFF" stroke-width="0.2497" stroke-miterlimit="10" width="68.115" height="11.069"/>
		
			<rect x="174.691" y="336.105" fill-rule="evenodd" clip-rule="evenodd" fill="none" stroke="#FFFFFF" stroke-width="0.1248" stroke-miterlimit="10" width="68.115" height="11.069"/>
	</g>
	<rect x="174.691" y="353.373" fill-rule="evenodd" clip-rule="evenodd" fill="#93CA66" width="68.115" height="12.398"/>
	<g>
		<rect x="171.479" y="291.989" fill-rule="evenodd" clip-rule="evenodd" fill="#FFFFFF" width="74.54" height="6.157"/>
		<rect x="165.766" y="307.308" fill-rule="evenodd" clip-rule="evenodd" fill="#FFFFFF" width="85.965" height="3.55"/>
		<rect x="172.703" y="314.914" fill-rule="evenodd" clip-rule="evenodd" fill="#FFFFFF" width="72.092" height="3.551"/>
	</g>
</g>
</svg>
