<?xml version="1.0" encoding="utf-8"?>
<!-- Generator: Adobe Illustrator 16.0.0, SVG Export Plug-In . SVG Version: 6.00 Build 0)  -->
<!DOCTYPE svg PUBLIC "-//W3C//DTD SVG 1.1//EN" "http://www.w3.org/Graphics/SVG/1.1/DTD/svg11.dtd">
<svg version="1.1" id="Layer_1" xmlns="http://www.w3.org/2000/svg" xmlns:xlink="http://www.w3.org/1999/xlink" x="0px" y="0px"
	 width="180px" height="46px" viewBox="28 -3 180 46" enable-background="new 28 -3 180 46" xml:space="preserve">
<g>
	<rect x="28.494" y="-2.566" fill="#475A65" width="180" height="46"/>
	<g>
		<path fill="#0D947C" d="M56.331,30.004V18.803c0-0.151-0.07-0.285-0.181-0.374h0.003l-9.059-7.803l-9.193,7.803h0.003
			c-0.109,0.088-0.181,0.222-0.181,0.374v11.201c0,0.266,0.217,0.482,0.482,0.482h17.643C56.114,30.486,56.331,30.27,56.331,30.004
			L56.331,30.004z"/>
		<g>
			<path opacity="0.05" fill="#FFFFFF" d="M56.331,30.004c0,0.266-0.217,0.482-0.482,0.482H38.206c-0.266,0-0.482-0.217-0.482-0.482
				l9.371-5.98L56.331,30.004z"/>
			<path opacity="0.15" fill="#FFFFFF" d="M37.723,30.004V18.803c0-0.266,0.217-0.483,0.482-0.483l8.889,5.703L37.723,30.004z"/>
			<path opacity="0.1" fill="#FFFFFF" d="M56.331,30.004V18.803c0-0.266-0.217-0.484-0.482-0.484l-8.754,5.704L56.331,30.004z"/>
		</g>
		<g>
			<polygon fill="#C8C0B9" points="47.094,24.023 55.227,18.724 55.227,10.381 38.827,10.381 38.827,18.718 			"/>
			<polygon fill="#FFF2EA" points="47.094,24.023 54.575,19.149 54.575,10.918 39.479,10.918 39.479,19.137 			"/>
			<rect x="41.075" y="12.529" fill="#353637" width="11.809" height="1.453"/>
			<rect x="41.075" y="14.542" fill="#92301F" width="11.809" height="0.403"/>
			<rect x="41.075" y="16.397" fill="#353637" width="3.131" height="3.131"/>
			<rect x="44.988" y="16.397" fill="#E2D8D1" width="7.896" height="0.426"/>
			<rect x="44.988" y="17.627" fill="#E2D8D1" width="7.896" height="0.426"/>
			<rect x="44.988" y="18.857" fill="#E2D8D1" width="7.896" height="0.425"/>
			<polygon fill="#E2D8D1" points="41.623,20.512 52.483,20.512 52.883,20.252 52.883,20.087 41.276,20.087 41.276,20.29 			"/>
			<polygon fill="#E2D8D1" points="43.436,21.676 50.696,21.676 51.348,21.252 42.775,21.252 			"/>
			<polygon fill="#E2D8D1" points="45.107,22.748 49.05,22.748 49.704,22.322 44.446,22.322 			"/>
		</g>
	</g>
	<g>
		<g>
			<g>
				
					<rect x="115.53" y="15.011" opacity="0.6" fill-rule="evenodd" clip-rule="evenodd" fill="#A4A7A9" stroke="#FFFFFF" stroke-width="0.2076" stroke-miterlimit="10" width="48.08" height="10.845"/>
			</g>
		</g>
		<g>
			<rect x="168.822" y="15.011" fill-rule="evenodd" clip-rule="evenodd" fill="#93CA66" width="30.322" height="10.847"/>
		</g>
		<rect x="69.333" y="15.011" fill-rule="evenodd" clip-rule="evenodd" fill="#FFFFFF" width="41.429" height="10.845"/>
	</g>
</g>
</svg>
