<?xml version="1.0" encoding="utf-8"?>
<!-- Generator: Adobe Illustrator 16.0.0, SVG Export Plug-In . SVG Version: 6.00 Build 0)  -->
<!DOCTYPE svg PUBLIC "-//W3C//DTD SVG 1.1//EN" "http://www.w3.org/Graphics/SVG/1.1/DTD/svg11.dtd">
<svg version="1.1" id="Layer_1" xmlns="http://www.w3.org/2000/svg" xmlns:xlink="http://www.w3.org/1999/xlink" x="0px" y="0px"
	 width="60px" height="60px" viewBox="0 0 60 60" enable-background="new 0 0 60 60" xml:space="preserve">
<g>
	<path fill="#12957C" d="M60,58.559V25.132c0-0.45-0.23-0.849-0.582-1.113h0.012L30.216,0.731L0.572,24.019h0.011
		C0.231,24.283,0,24.682,0,25.132v33.426C0,59.351,0.701,60,1.558,60h56.883C59.299,60,60,59.351,60,58.559L60,58.559z"/>
	<g>
		<path opacity="0.05" fill="#FFFFFF" d="M60,58.559C60,59.351,59.299,60,58.441,60H1.558C0.701,60,0,59.351,0,58.559l30.216-17.848
			L60,58.559z"/>
		<path opacity="0.15" fill="#FFFFFF" d="M0,58.559V25.132c0-0.792,0.701-1.441,1.558-1.441l28.658,17.02L0,58.559z"/>
		<path opacity="0.1" fill="#FFFFFF" d="M60,58.559V25.132c0-0.792-0.701-1.441-1.559-1.441l-28.225,17.02L60,58.559z"/>
	</g>
	<g>
		<polygon fill="#C9C1BA" points="30.216,40.711 56.441,24.898 56.441,0 3.561,0 3.561,24.88 		"/>
		<polygon fill="#FFF3EB" points="30.216,40.711 54.34,26.165 54.34,1.603 5.661,1.603 5.661,26.128 		"/>
		<rect x="10.805" y="6.409" fill="#353637" width="38.078" height="4.338"/>
		<rect x="10.805" y="12.416" fill="#93301F" width="38.078" height="1.201"/>
		<rect x="10.805" y="17.956" fill="#353637" width="10.097" height="9.344"/>
		<rect x="23.426" y="17.956" fill="#E3D9D2" width="25.457" height="1.268"/>
		<rect x="23.426" y="21.625" fill="#E3D9D2" width="25.457" height="1.268"/>
		<rect x="23.426" y="25.295" fill="#E3D9D2" width="25.457" height="1.269"/>
		<polygon fill="#E3D9D2" points="12.574,30.233 47.592,30.233 48.883,29.456 48.883,28.965 11.455,28.965 11.455,29.568 		"/>
		<polygon fill="#E3D9D2" points="18.424,33.707 41.832,33.707 43.936,32.438 16.288,32.438 		"/>
		<polygon fill="#E3D9D2" points="23.811,36.906 36.525,36.906 38.629,35.638 21.675,35.638 		"/>
	</g>
</g>
</svg>
