<?xml version="1.0" encoding="utf-8"?>
<!-- Generator: Adobe Illustrator 16.0.0, SVG Export Plug-In . SVG Version: 6.00 Build 0)  -->
<!DOCTYPE svg PUBLIC "-//W3C//DTD SVG 1.1//EN" "http://www.w3.org/Graphics/SVG/1.1/DTD/svg11.dtd">
<svg version="1.1" id="Layer_1" xmlns="http://www.w3.org/2000/svg" xmlns:xlink="http://www.w3.org/1999/xlink" x="0px" y="0px"
	 width="160px" height="100px" viewBox="359.544 174.271 160 100" enable-background="new 359.544 174.271 160 100"
	 xml:space="preserve">
<g>
	<rect x="360.329" y="174.095" fill="#475A65" width="160" height="100"/>
	<rect x="360.329" y="174.095" fill="#93CA66" width="59.376" height="100"/>
	<g>
		<g>
			<path fill="#0D947C" d="M402.771,238.987v-15.824c0-0.213-0.097-0.402-0.245-0.527h0.005l-12.288-11.024l-12.469,11.024h0.005
				c-0.148,0.125-0.246,0.314-0.246,0.527v15.825c0,0.375,0.295,0.682,0.656,0.682h23.927
				C402.477,239.669,402.771,239.363,402.771,238.987L402.771,238.987z"/>
			<g>
				<path opacity="0.05" fill="#FFFFFF" d="M402.771,238.988c0,0.375-0.294,0.682-0.655,0.682h-23.927
					c-0.361,0-0.656-0.307-0.656-0.682l12.71-8.449L402.771,238.988z"/>
				<path opacity="0.15" fill="#FFFFFF" d="M377.533,238.988v-15.825c0-0.375,0.295-0.682,0.656-0.682l12.054,8.058L377.533,238.988
					z"/>
				<path opacity="0.1" fill="#FFFFFF" d="M402.771,238.987v-15.824c0-0.375-0.294-0.683-0.655-0.683l-11.873,8.059L402.771,238.987
					z"/>
			</g>
			<g>
				<polygon fill="#C8C0B9" points="390.243,230.539 401.274,223.052 401.274,211.264 379.031,211.264 379.031,223.043 				"/>
				<polygon fill="#FFF2EA" points="390.243,230.539 400.39,223.652 400.39,212.023 379.915,212.023 379.915,223.634 				"/>
				<rect x="382.079" y="214.299" fill="#353637" width="16.016" height="2.053"/>
				<rect x="382.079" y="217.142" fill="#92301F" width="16.016" height="0.569"/>
				<rect x="382.079" y="219.765" fill="#353637" width="4.247" height="4.424"/>
				<rect x="387.387" y="219.765" fill="#E2D8D1" width="10.708" height="0.601"/>
				<rect x="387.387" y="221.502" fill="#E2D8D1" width="10.708" height="0.601"/>
				<rect x="387.387" y="223.24" fill="#E2D8D1" width="10.708" height="0.601"/>
				<polygon fill="#E2D8D1" points="382.823,225.578 397.552,225.578 398.095,225.209 398.095,224.978 382.352,224.978 
					382.352,225.263 				"/>
				<polygon fill="#E2D8D1" points="385.284,227.222 395.128,227.222 396.014,226.623 384.385,226.623 				"/>
				<polygon fill="#E2D8D1" points="387.549,228.738 392.897,228.738 393.782,228.136 386.65,228.136 				"/>
			</g>
		</g>
		<g>
			<g>
				<g>
					
						<rect x="442.763" y="228.419" opacity="0.6" fill-rule="evenodd" clip-rule="evenodd" fill="#A4A7A9" stroke="#FFFFFF" stroke-width="0.1858" stroke-miterlimit="10" width="61.154" height="6.824"/>
				</g>
			</g>
			<g>
				<rect x="442.763" y="237.673" fill-rule="evenodd" clip-rule="evenodd" fill="#93CA66" width="32.01" height="7.644"/>
			</g>
			<g>
				<rect x="442.763" y="205.616" fill-rule="evenodd" clip-rule="evenodd" fill="#FFFFFF" width="49.869" height="3.223"/>
				<rect x="442.763" y="213.635" fill-rule="evenodd" clip-rule="evenodd" fill="#FFFFFF" width="57.515" height="1.858"/>
				<rect x="442.763" y="217.616" fill-rule="evenodd" clip-rule="evenodd" fill="#FFFFFF" width="48.231" height="1.859"/>
			</g>
		</g>
	</g>
</g>
</svg>
